Coordinates
version=1
nRows=12
nColumns=33
inDegrees=yes

Units are S.I. units (second, meters, Newtons, ...)
Angles are in degrees.

endheader
time	ground_thorax_rot_x	ground_thorax_rot_y	ground_thorax_rot_z	ground_thorax_tx	ground_thorax_ty	ground_thorax_tz	clav_prot_r	clav_elev_r	scapula_abduction_r	scapula_elevation_r	scapula_upward_rot_r	scapula_winging_r	shoulder_elv_r	plane_of_elev_r	axial_rot_r	elbow_flexion_r	pro_sup_r	wrist_flex_r	wrist_dev_r	clav_prot_l	clav_elev_l	scapula_abduction_l	scapula_elevation_l	scapula_upward_rot_l	scapula_winging_l	shoulder_elv_l	plane_of_elev_l	axial_rot_l	elbow_flexion_l	pro_sup_l	wrist_flex_l	wrist_dev_l
      4.13000000	     40.30136007	     -1.60252740	      6.01911849	   -115.96666238	    897.15723502	     -8.11892948	     14.50571351	     41.03250374	     43.26410936	     45.00000000	    -26.62186488	   2071.39629218	  -1731.72285999	     32.19248989	     63.86037238	   1459.26036306	     81.66138196	     14.97814325	      3.13716254	      1.53837289	    -45.00000000	    -45.00000000	     45.00000000	     18.00351471	   -613.59841990	  -3149.72668920	     13.18822874	    179.99999979	      6.57128464	    206.44481502	     15.57797812	    -17.90510786
      4.14000000	     40.30749519	     -1.73343856	      5.78455463	   -111.95002364	    895.37628127	     -8.11231667	     13.05128290	     40.69126294	     43.25548187	     45.00000000	    -26.09766350	   2071.44071368	  -1731.87960322	     32.55645332	     62.89465036	   1459.33947753	     82.15149786	     14.87711858	      3.21750557	      1.78274778	    -45.00000000	    -45.00000000	     45.00000000	     17.36690100	   -613.98051253	  -3150.38026159	     13.41222498	    179.99999979	      6.20351165	    205.89179337	     15.68520867	    -17.87615356
      4.15000000	     40.37314833	     -1.94636454	      5.83676480	   -107.84472222	    893.35399251	     -8.10146658	     14.66167691	     41.62289895	     43.99977016	     45.00000000	    -25.37658734	   2071.49445004	  -1732.13301373	     32.25582113	     62.88748302	   1459.38536451	     82.67328735	     15.01631886	      3.20426366	      1.19120330	    -45.00000000	    -45.00000000	     45.00000000	     18.55942801	   -613.97439037	  -3150.58239477	     13.26613112	    179.99999979	      6.27723947	    205.19371148	     15.69682703	    -17.82645123
      4.16000000	     40.42935660	     -2.18865267	      5.59345636	   -103.67085703	    891.09908671	     -8.09019158	     14.90083657	     41.65991948	     44.34263515	     45.00000000	    -24.53525327	   2071.64155654	  -1732.39107413	     32.15020660	     62.34396008	   1459.43523251	     83.08512508	     14.90911856	      3.23116920	      0.66175298	    -45.00000000	    -45.00000000	     45.00000000	     19.60831530	   -614.05122834	  -3151.07870828	     13.28336497	    179.99999979	      6.45532822	    204.63929873	     15.71616821	    -17.55958727
      4.17000000	     40.49136119	     -2.49135693	      5.45541273	    -99.42661420	    888.60588165	     -8.07577480	     15.17591916	     41.89813741	     44.93463449	     45.00000000	    -23.75607562	   2071.69567043	  -1732.70702029	     32.01520505	     61.78239772	   1459.43366372	     83.33642705	     14.88282177	      3.27193775	      0.22798698	    -45.00000000	    -45.00000000	     45.00000000	     20.46230998	   -614.09635559	  -3151.50843589	     13.29361168	    179.99999979	      6.49538356	    204.09506955	     15.71417799	    -17.37756340
      4.18000000	     40.51494940	     -2.68504158	      5.30746913	    -95.11254805	    885.87480727	     -8.05229635	     14.71543210	     42.13702253	     45.00000000	     45.00000000	    -23.27225898	   2071.98107275	  -1732.81248132	     32.25799406	     61.05691610	   1459.49681952	     83.39999733	     15.05721739	      3.32917382	      0.10300462	    -45.00000000	    -45.00000000	     45.00000000	     20.26312796	   -614.42813456	  -3152.11010145	     13.30255693	    179.99999979	      6.25285752	    203.65884464	     15.69753038	    -17.33818418
      4.19000000	     40.50883355	     -2.75098529	      5.19751674	    -90.72144449	    882.90387920	     -8.00790092	     14.74716007	     42.14685276	     45.00000000	     45.00000000	    -22.87883524	   2072.36763801	  -1733.01536616	     32.40333385	     60.01071243	   1459.48916343	     83.27256898	     15.10269961	      3.38483311	     -0.05172041	    -45.00000000	    -45.00000000	     45.00000000	     20.20183083	   -614.67912143	  -3152.74493139	     13.36840233	    179.99999979	      6.22543794	    203.23814113	     15.68103340	    -17.18743415
      4.20000000	     40.52046635	     -2.76762912	      5.16632262	    -86.25108853	    879.69857030	     -7.93330758	     15.03987426	     42.31682911	     45.00000000	     45.00000000	    -22.42763115	   2072.85381888	  -1733.13281537	     32.42288197	     58.91928870	   1459.43495814	     82.91163487	     15.22963691	      3.44597539	     -0.30549686	    -45.00000000	    -45.00000000	     45.00000000	     20.36789982	   -614.87211778	  -3153.34216957	     13.33119337	    179.99999979	      6.18032590	    202.76156538	     15.62487919	    -17.03335163
      4.21000000	     40.54123164	     -2.78894029	      5.20719050	    -81.71461546	    876.28178957	     -7.82459554	     15.24316736	     42.48786851	     45.00000000	     45.00000000	    -21.38483675	   2073.26254024	  -1733.56236488	     32.20620010	     58.22556560	   1459.25612368	     82.18652965	     15.20803806	      3.52379290	     -0.92955684	    -45.00000000	    -45.00000000	     45.00000000	     21.62213654	   -614.66853519	  -3153.85333389	     13.27316493	    179.99999979	      6.31435481	    202.32285741	     15.51361374	    -16.73259065
      4.22000000	     40.55001194	     -2.76448353	      5.22490224	    -77.12908754	    872.68088059	     -7.68200549	     15.08238039	     42.66883737	     45.00000000	     45.00000000	    -21.45242444	   2073.69529835	  -1733.65134651	     32.53066681	     57.07688912	   1459.17456605	     81.35041823	     15.47637331	      3.62963151	     -0.82280775	    -45.00000000	    -45.00000000	     45.00000000	     20.64393707	   -615.09536583	  -3154.59744640	     13.22721862	    179.99999979	      5.87386984	    202.03253192	     15.41778479	    -16.78250690
      4.23000000	     40.56744230	     -2.89912243	      5.16570494	    -72.53366413	    868.94025330	     -7.51719323	     15.48166461	     42.72837479	     45.00000000	     45.00000000	    -20.91681831	   2074.39361523	  -1733.82744254	     32.40431677	     55.62288927	   1459.01050742	     80.00548906	     15.69530966	      3.75058409	     -1.21544120	    -45.00000000	    -45.00000000	     45.00000000	     21.09849700	   -615.18806167	  -3155.20013494	     13.21730283	    179.99999979	      6.06019099	    201.80271630	     15.32762488	    -16.54358197
      4.24000000	     40.60957513	     -2.79469905	      5.21735251	    -67.93708921	    865.07479459	     -7.33121321	     15.54685824	     42.80122117	     45.00000000	     45.00000000	    -21.01587350	   2074.82881749	  -1733.92936702	     32.64926829	     54.28402658	   1458.89052707	     78.38447279	     15.96364759	      3.88599167	     -1.19900848	    -45.00000000	    -45.00000000	     45.00000000	     20.47532084	   -615.51066711	  -3155.92917042	     13.18731907	    179.99999979	      5.82531990	    201.74334325	     15.23298714	    -16.55008438
